<svg version="1.0" xmlns="http://www.w3.org/2000/svg" fill="white" width="1706.667" height="1585.333" viewBox="0 0 1280 1189"><path d="M325 .6c-2.5.2-10.6 1.1-18 2C158.5 19.8 36.6 132.1 6.9 279-6.4 345 .2 429.7 24 501.3c25.2 75.3 67.5 141.1 139.7 217.2 34.2 36 63.4 63 158.8 147 23.1 20.3 48.8 43 57 50.5 102.4 92 173.5 169.2 234.6 254.7l13 18.3h13.2l13.2-.1 13-19.2c55.7-82.2 121.2-156 218.5-246.1 19.1-17.8 40.8-37.3 102.7-92.3 95.6-85.2 144.5-134.3 184.1-185 64.3-82.5 96.8-160.3 106.4-255.3 1.9-19.6 1.7-66.5-.5-83.5-10.5-80.5-44.1-149.7-99.8-205.4-55.7-55.7-125-89.4-205.4-99.8-19.3-2.4-61.3-2.4-81 0-73.3 9.3-137.9 38.7-192 87.4-19.1 17.2-40.6 41.7-53.5 61-3 4.5-5.7 8.2-6 8.2-.3 0-3-3.7-6-8.2-12.9-19.3-34.4-43.8-53.5-61-53.1-47.8-117-77.3-187.8-86.7C378.1 1 336.5-.4 325 .6z"/></svg>